<?xml version="1.0" encoding="UTF-8"?>
<svg width="20px" height="20px" viewBox="0 0 20 20" version="1.1" xmlns="http://www.w3.org/2000/svg" xmlns:xlink="http://www.w3.org/1999/xlink">
    <defs>
        <path id="chrome-mask-path" d="M8.81124135,18.8873103 C4.4038264,18.3138466 1,14.5451388 1,9.98142475 C1,8.18041574 1.53010551,6.50321951 2.44279798,5.09735461 L6.2179181,11.6360544 C6.85456224,13.0820298 8.30009833,14.0915683 9.98142475,14.0915683 C10.6480171,14.0915683 11.2775462,13.932882 11.8342967,13.6512249 L8.81124135,18.8873103 Z M9.47872314,18.9490183 L13.1324537,12.6205712 C13.731105,11.9065633 14.0915683,10.9860894 14.0915683,9.98142475 C14.0915683,8.50126286 13.3091532,7.20384382 12.1353467,6.48019137 L18.2548189,6.48019137 C18.7107089,7.55611768 18.9628495,8.73932592 18.9628495,9.98142475 C18.9628495,14.9417287 14.9417287,18.9628495 9.98142475,18.9628495 C9.81273088,18.9628495 9.64512327,18.9581987 9.47872314,18.9490183 Z M2.82898906,4.54843687 C4.46949453,2.39206506 7.06289253,1 9.98142475,1 C13.4605922,1 16.4777146,2.97825022 17.9693225,5.87128122 L9.82919721,5.87128122 L9.82919721,5.87404802 C7.68232417,5.95221356 5.95559524,7.67696328 5.87427711,9.8230305 L2.82898906,4.54843687 Z M9.98142475,13.1782031 C8.21589285,13.1782031 6.78464645,11.7469567 6.78464645,9.98142475 C6.78464645,8.21589285 8.21589285,6.78464645 9.98142475,6.78464645 C11.7469567,6.78464645 13.1782031,8.21589285 13.1782031,9.98142475 C13.1782031,11.7469567 11.7469567,13.1782031 9.98142475,13.1782031 Z"></path>
    </defs>
    <g>
        <mask>
            <use xlink:href="#chrome-mask-path"></use>
        </mask>
        <use xlink:href="#chrome-mask-path"></use>
    </g>
</svg>