<?xml version="1.0" encoding="UTF-8"?>
<svg width="20px" height="20px" viewBox="0 0 20 20" version="1.1" xmlns="http://www.w3.org/2000/svg" xmlns:xlink="http://www.w3.org/1999/xlink">
    <path d="M7.28977273,11.7954545 C7.28977273,12.2329545 7.35511364,12.6306818 7.48863636,12.9886364 C7.63068182,13.3409091 7.81534091,13.65625 8.05113636,13.9318182 C8.28693182,14.2073864 8.5625,14.4431818 8.88636364,14.6420455 C9.19886364,14.8409091 9.53977273,15.0056818 9.90340909,15.1335227 C10.2642045,15.2642045 10.6420455,15.3607955 11.0255682,15.4232955 C11.4147727,15.4857955 11.7926136,15.5170455 12.1761364,15.5170455 C12.6590909,15.5170455 13.1079545,15.4801136 13.5340909,15.4034091 C13.9602273,15.3238636 14.375,15.21875 14.7840909,15.0852273 C15.1931818,14.9517045 15.5880682,14.7926136 15.9829545,14.6107955 C16.3806818,14.4289773 16.7840909,14.2301136 17.1988636,14.0085227 L17.1988636,17.8607955 C16.7357955,18.0880682 16.28125,18.2784091 15.8267045,18.4431818 C15.3721591,18.6022727 14.9176136,18.7414773 14.4545455,18.8522727 C13.9914773,18.9659091 13.5227273,19.0511364 13.0426136,19.1022727 C12.5625,19.1534091 12.0710227,19.1818182 11.5596591,19.1818182 C10.8778409,19.1818182 10.21875,19.1022727 9.58522727,18.9460227 C8.95170455,18.7897727 8.35795455,18.5653409 7.80113636,18.2698864 C7.24431818,17.9744318 6.73579545,17.6164773 6.27272727,17.1960227 C5.80681818,16.7755682 5.41193182,16.3011364 5.07954545,15.7755682 C4.74715909,15.25 4.49147727,14.6732955 4.30681818,14.0539773 C4.12784091,13.4346591 4.03693182,12.7755682 4.03693182,12.0767045 C4.03693182,11.3295455 4.13920455,10.6193182 4.34375,9.94034091 C4.55113636,9.25852273 4.84375,8.63920455 5.23011364,8.07102273 C5.61363636,7.50284091 6.08238636,6.99715909 6.63636364,6.55681818 C7.19034091,6.11647727 7.8125,5.75568182 8.50568182,5.47727273 C8.12784091,5.85511364 7.83238636,6.30113636 7.625,6.82102273 C7.41193182,7.33806818 7.27840909,7.85795455 7.21875,8.37784091 L13.6903409,8.37784091 C13.6903409,7.72443182 13.625,7.15625 13.4914773,6.66761364 C13.3579545,6.17897727 13.1448864,5.77272727 12.8465909,5.45170455 C12.5511364,5.12784091 12.1704545,4.88352273 11.7017045,4.72443182 C11.2329545,4.5625 10.6676136,4.48011364 10.0056818,4.48011364 C9.22443182,4.48011364 8.44318182,4.59375 7.66193182,4.82954545 C6.88068182,5.05681818 6.13920455,5.38352273 5.43465909,5.79545455 C4.73011364,6.21306818 4.08238636,6.70454545 3.49147727,7.26704545 C2.90056818,7.83522727 2.40340909,8.44602273 2,9.10795455 C2.08522727,8.34090909 2.25568182,7.60227273 2.49147727,6.90056818 C2.72727273,6.19886364 3.03977273,5.54545455 3.41477273,4.94034091 C3.78977273,4.34375 4.23011364,3.79829545 4.73295455,3.30965909 C5.23579545,2.82102273 5.79261364,2.40056818 6.40909091,2.05965909 C7.02556818,1.71875 7.67897727,1.44318182 8.38920455,1.25852273 C9.09943182,1.09659091 9.85511364,1 10.6505682,1 C11.1164773,1 11.5795455,1.04261364 12.0426136,1.125 C12.5056818,1.21022727 12.9573864,1.32386364 13.3977273,1.47159091 C14.2727273,1.77272727 15.0539773,2.19318182 15.7414773,2.72727273 C16.4289773,3.26704545 17.0056818,3.88068182 17.4744318,4.58238636 C17.9431818,5.28409091 18.2982955,6.05965909 18.5426136,6.90340909 C18.7869318,7.74715909 18.9119318,8.625 18.9119318,9.53693182 L18.9119318,11.7954545 L7.28977273,11.7954545 Z"></path>
</svg>