<?xml version="1.0" encoding="UTF-8"?>
<svg width="20px" height="20px" viewBox="0 0 20 20" version="1.1" xmlns="http://www.w3.org/2000/svg" xmlns:xlink="http://www.w3.org/1999/xlink">
    <path d="M2.16304045,5.58750866 L2.65175798,2.88827558 L3.38181157,3.92666652 C5.04809313,2.12823525 7.44642617,1 10.1121069,1 C15.1445845,1 19.2242137,5.02112083 19.2242137,9.98142475 C19.2242137,14.9417287 15.1445845,18.9628495 10.1121069,18.9628495 C5.0796292,18.9628495 1,14.9417287 1,9.98142475 C1,8.38531634 1.42240485,6.88645095 2.16304045,5.58750866 Z M3.74289789,4.44025727 L3.87701128,4.6310133 L5.97846487,4.81906783 L8.01584613,3.66784707 L7.3743795,5.00712235 C7.3743795,5.00712235 7.68641622,5.45949384 7.68641622,5.88570121 C7.68641622,5.88570121 9.71526869,5.88570121 9.71526869,5.88570121 C9.71526869,5.88570121 10.1228001,6.14868023 9.77166591,6.5564538 C9.42053168,6.96422737 7.97778924,8.06876898 7.97778924,8.06876898 L7.9679777,9.23976148 L6.63732468,9.26800683 C6.63732468,9.26800683 6.5970379,10.8595576 7.66575252,11.1531605 C8.73446714,11.4467635 10.1391527,10.7291831 10.1391527,10.7291831 C10.1391527,10.7291831 11.2123271,10.5661034 11.619952,11.0412198 C12.0275769,11.5163362 11.9819384,11.6661852 11.4611835,11.8369952 C10.9404285,12.0078052 9.76646282,12.9959463 8.86722026,12.9959463 C7.9679777,12.9959463 7.6853756,12.9578894 7.6853756,12.9578894 C7.6853756,12.9578894 8.05182178,13.5135793 8.79868814,13.7505429 C9.54555449,13.9875065 13.0039739,14.8344208 14.7281291,11.8099391 C15.0797093,11.0412198 15.0698978,9.58450334 15.0698978,9.58450334 L15.8069526,10.0758237 C15.8069526,10.0758237 16.2884614,8.19735963 15.8069526,7.04153042 C15.8069526,7.04153042 16.3907393,6.96318676 16.3907393,6.96318676 C16.3907393,6.96318676 15.3719743,4.81193216 13.0259755,4.23988962 C13.0259755,4.23988962 14.3838333,3.88340364 14.3838333,3.88340364 C14.3838333,3.88340364 13.4674948,3.02667776 12.0008182,2.75269792 L14.5493364,2.8182216 C13.2614447,2.05077145 11.7500878,1.60891015 10.1336523,1.60891015 C7.58906296,1.60891015 5.30486889,2.70388615 3.74289789,4.44025727 Z"></path>
</svg>