<?xml version="1.0" encoding="UTF-8"?>
<svg width="20px" height="20px" viewBox="0 0 20 20" version="1.1" xmlns="http://www.w3.org/2000/svg" xmlns:xlink="http://www.w3.org/1999/xlink">
    <path d="M15.602338,15.8028955 L11.6998188,12.977617 C11.3342665,13.2181518 10.909435,13.3775057 10.4648448,13.4576837 L9.87205675,16.56559 L9.2891485,13.4576837 C7.84669825,13.2071267 6.71052175,12.0555677 6.46352725,10.6023385 L3.41067025,10 L6.46352725,9.4096885 C6.52280575,9.0679285 6.63148375,8.7371935 6.769801,8.44755025 L7.39123975,9.36959875 C7.34282875,9.5690425 7.3131895,9.77950975 7.3131895,10 C7.3131895,11.4341867 8.45924575,12.5967707 9.87205675,12.5967707 C10.2277292,12.5967707 10.573522,12.5165927 10.8797957,12.3863027 L8.933476,10.9731625 L8.933476,10.9821827 L8.91272875,10.9621382 L8.90383675,10.953118 L8.90383675,10.9420937 L4.14177475,4.188085 L10.8106375,9.01781725 L10.8205172,9.008797 L10.830397,9.0278395 L10.8402767,9.03786175 L12.2234478,11.0132515 C12.361765,10.702561 12.430924,10.3608017 12.430924,10 C12.430924,8.56681525 11.2848678,7.405234 9.87205675,7.405234 C9.66458125,7.405234 9.457105,7.43429875 9.25950925,7.48441 L8.36044825,6.8439865 C8.64696175,6.70267225 8.9532355,6.60244975 9.2891485,6.54231625 L9.87205675,3.44543425 L10.4648448,6.54231625 C11.8974145,6.79287325 13.033591,7.94643625 13.2805862,9.4096885 L16.343323,10 L13.2805862,10.6023385 C13.211428,11.0533405 13.0434707,11.4742765 12.8162358,11.8451005 L15.602338,15.8028955 Z M10.0004943,1 C5.03095675,1 1,5.0289535 1,10 C1,14.9720492 5.03095675,19 10.0004943,19 C14.970031,19 19,14.9720492 19,10 C19,5.0289535 14.970031,1 10.0004943,1 Z"></path>
</svg>