<?xml version="1.0" encoding="UTF-8"?>
<svg width="20px" height="20px" viewBox="0 0 20 20" version="1.1" xmlns="http://www.w3.org/2000/svg" xmlns:xlink="http://www.w3.org/1999/xlink">
    <path d="M17.1172638,2 L2.88223622,2 C2.39424384,2 2,2.39474383 2,2.88273621 L2,17.1172638 C2,17.6050062 2.39424384,18 2.88223622,18 L10.5463665,18 L10.5463665,11.7968469 L8.45289917,11.7968469 L8.45289917,9.39013453 L10.5468665,9.39013453 L10.5468665,7.60841237 C10.5468665,5.54169466 11.8080967,4.42221215 13.6518179,4.42221215 C14.5350541,4.42221215 15.2940423,4.48196122 15.5152888,4.51146076 L15.5152888,6.672177 L14.2365588,6.67167701 C13.2338245,6.67167701 13.0465774,7.14816956 13.0465774,7.84740863 L13.0465774,9.39013453 L15.4310401,9.39013453 L15.119795,11.7968469 L13.0465774,11.7968469 L13.0465774,18 L17.1172638,18 C17.6050062,18 18,17.6050062 18,17.1172638 L18,2.88273621 C18,2.39474383 17.6050062,2 17.1172638,2"></path>
</svg>