<?xml version="1.0" encoding="UTF-8"?>
<svg width="20px" height="20px" viewBox="0 0 20 20" version="1.1" xmlns="http://www.w3.org/2000/svg" xmlns:xlink="http://www.w3.org/1999/xlink">
    <path d="M9.99917125,1 C5.02995795,1 1,5.02940545 1,10.0002763 C1,13.9766414 3.57853218,17.3496731 7.15488505,18.5397649 C7.60517511,18.6226404 7.76926855,18.3447313 7.76926855,18.1060499 C7.76926855,17.8927837 7.7615335,17.326468 7.75711348,16.5756162 C5.25372172,17.1192793 4.72552871,15.3689493 4.72552871,15.3689493 C4.31612388,14.3291384 3.72605052,14.0523343 3.72605052,14.0523343 C2.90889837,13.4943061 3.78793088,13.5053562 3.78793088,13.5053562 C4.69127352,13.5688941 5.16642623,14.433009 5.16642623,14.433009 C5.9692133,15.8081893 7.27312072,15.4109396 7.78584364,15.1805458 C7.86761411,14.5993124 8.10021793,14.2026152 8.35713189,13.9777464 C6.35872801,13.7506676 4.25755855,12.9782682 4.25755855,9.52954357 C4.25755855,8.54719298 4.60839805,7.7433009 5.18410633,7.11455232 C5.0912858,6.88692102 4.78243654,5.97142331 5.27250683,4.73271126 C5.27250683,4.73271126 6.02777863,4.49071488 7.74716842,5.65539151 C8.46487001,5.45538537 9.23505939,5.3559348 10.0002763,5.35206728 C10.7649406,5.3559348 11.5345775,5.45538537 12.2533841,5.65539151 C13.9716689,4.49071488 14.7258357,4.73271126 14.7258357,4.73271126 C15.217011,5.97142331 14.9081617,6.88692102 14.8158937,7.11455232 C15.392707,7.7433009 15.7407839,8.54719298 15.7407839,9.52954357 C15.7407839,12.9871083 13.6362995,13.7479051 11.631818,13.9705639 C11.9544799,14.2484729 12.242334,14.7976611 12.242334,15.6374659 C12.242334,16.8402652 12.231284,17.8110132 12.231284,18.1060499 C12.231284,18.3469413 12.3937199,18.6270604 12.8500875,18.5392124 C16.4236778,17.3463581 19,13.9755364 19,10.0002763 C19,5.02940545 14.9700421,1 9.99917125,1"></path>
</svg>