<?xml version="1.0" encoding="UTF-8"?>
<svg width="20px" height="20px" viewBox="0 0 20 20" version="1.1" xmlns="http://www.w3.org/2000/svg" xmlns:xlink="http://www.w3.org/1999/xlink">
    <path d="M18.6524647,3.74977341 L15.6974449,17.1743363 C15.5935575,17.6245151 15.0625773,17.8092038 14.7047429,17.5206276 L11.241829,14.7733826 C10.987882,14.5656078 10.6069615,14.6002369 10.3876436,14.8541839 L8.61001444,16.9088462 C8.29835219,17.2782237 7.69811378,17.1512502 7.55959723,16.7010714 L5.98974293,11.864535 C5.92048465,11.6683032 5.758882,11.5067005 5.56265022,11.4605283 L2.45757076,10.640972 C1.89196149,10.4909124 1.83424626,9.7059853 2.37676944,9.47512437 L17.8098223,3.04564758 C18.2715442,2.86095884 18.7563521,3.26496546 18.6524647,3.74977341 Z M14.8358273,6.28079016 L6.77878098,11.1288696 C6.64026443,11.2096709 6.58254919,11.3712736 6.62872138,11.5213332 L7.67913859,15.2843663 C7.71376773,15.3882537 7.86382733,15.3767106 7.87537038,15.2612802 L8.10623131,12.6640948 C8.11777435,12.467863 8.21011872,12.2831742 8.36017832,12.1562007 L14.9397147,6.41930672 C15.008973,6.35004844 14.9166286,6.22307493 14.8358273,6.28079016 Z"></path>
</svg>