<?xml version="1.0" encoding="UTF-8"?>
<svg width="20px" height="20px" viewBox="0 0 20 20" version="1.1" xmlns="http://www.w3.org/2000/svg" xmlns:xlink="http://www.w3.org/1999/xlink">
    <path d="M16.70625,6.48061538 C17.86125,5.67507692 18.5,4.65415385 18.5,4.65415385 C18.5,4.65415385 17.673125,5.05476923 16.44375,5.21415385 C17.681875,4.46892308 18.01875,3.25846154 18.01875,3.25846154 C18.01875,3.25846154 17.183125,3.80553846 15.735,4.12 C15.1572266,3.52123077 14.2797656,3 13.11875,3 C10.778125,3 9.085,5.17107692 9.61875,7.34215385 C8.76097656,7.34215385 4.92328125,6.96765385 2.21625,3.64615385 C0.776875,6.26953846 2.86375,8.13907692 3.3275,8.36738462 C3.12625,8.35446154 2.435,8.34584615 1.70875,7.928 C1.70875,8.80676923 2.12,10.896 4.57875,11.4258462 C3.765,11.6756923 2.96,11.4947692 2.96,11.4947692 C2.96,11.4947692 3.620625,13.8338462 6.31125,13.9501538 C3.765,15.9144615 1,15.4061538 1,15.4061538 C1,15.4061538 3.20144531,17 6.5125,17 C11.6287891,17 16.70625,13.3136923 16.70625,6.48061538 Z"></path>
</svg>