<?xml version="1.0" encoding="UTF-8"?>
<svg width="13px" height="11px" viewBox="0 0 13 11" version="1.1" xmlns="http://www.w3.org/2000/svg" xmlns:xlink="http://www.w3.org/1999/xlink">
    <path d="M9.24264069,4.17157288 L6.77817459,1.70710678 C6.3876503,1.31658249 6.3876503,0.683417511 6.77817459,0.292893219 C7.16869888,-0.0976310729 7.80186386,-0.0976310729 8.19238816,0.292893219 L12.4350288,4.53553391 C12.8255531,4.9260582 12.8255531,5.55922318 12.4350288,5.94974747 L8.19238816,10.1923882 C7.80186386,10.5829124 7.16869888,10.5829124 6.77817459,10.1923882 C6.3876503,9.80186386 6.3876503,9.16869888 6.77817459,8.77817459 L9.38477631,6.17157288 L1,6.17157288 C0.44771525,6.17157288 6.76353751e-17,5.72385763 0,5.17157288 C-6.76353751e-17,4.61928813 0.44771525,4.17157288 1,4.17157288 L9.24264069,4.17157288 Z"></path>
</svg>