<?xml version="1.0" encoding="UTF-8"?>
<svg width="110px" height="9px" viewBox="0 0 110 9" fill="#630FCD" version="1.1" xmlns="http://www.w3.org/2000/svg" xmlns:xlink="http://www.w3.org/1999/xlink">
    <path d="M7.90598939,5.01004549 C8.18953895,5.38116183 8.3313116,5.8294136 8.3313116,6.35481425 C8.3313116,7.122066 8.02274759,7.71417532 7.40561031,8.13115997 C6.78847303,8.54814462 5.89613927,8.75663381 4.72858226,8.75663381 L0,8.75663381 L0,0 L4.47839272,0 C5.59591158,0 6.4465475,0.206404304 7.030326,0.619219105 C7.61410451,1.03203391 7.90598939,1.58870006 7.90598939,2.28923427 C7.90598939,2.70621892 7.80382968,3.07941458 7.5995072,3.40883245 C7.39518473,3.73825032 7.10538474,3.99886182 6.73009856,4.19067475 C7.23048014,4.36580831 7.62243983,4.63892915 7.90598939,5.01004549 Z M2.45185747,1.78885519 L2.45185747,3.47763457 L4.15314632,3.47763457 C4.98711562,3.47763457 5.40409401,3.19408926 5.40409401,2.62699014 C5.40409401,2.06823072 4.98711562,1.78885519 4.15314632,1.78885519 L2.45185747,1.78885519 Z M5.82941622,6.07960576 C5.82941622,5.48748756 5.3957587,5.1914329 4.52843063,5.1914329 L2.45185747,5.1914329 L2.45185747,6.96777862 L4.52843063,6.96777862 C5.3957587,6.96777862 5.82941622,6.67172396 5.82941622,6.07960576 Z M17.6925701,6.84268385 L17.6925701,8.75663381 L10.6622441,8.75663381 L10.6622441,0 L17.5299469,0 L17.5299469,1.91394996 L13.1141016,1.91394996 L13.1141016,3.39006823 L17.0045489,3.39006823 L17.0045489,5.24147081 L13.1141016,5.24147081 L13.1141016,6.84268385 L17.6925701,6.84268385 Z M23.9389689,6.42987111 L22.5879454,6.42987111 L22.5879454,8.75663381 L20.111069,8.75663381 L20.111069,0 L24.1141016,0 C24.9063724,0 25.5943868,0.131348194 26.1781653,0.394048522 C26.7619438,0.65674885 27.2122804,1.0320294 27.5291888,1.51990144 C27.8460971,2.00777348 28.0045489,2.58111877 28.0045489,3.23995451 C28.0045489,3.87377118 27.8565216,4.42626755 27.5604625,4.8974602 C27.2644034,5.36865285 26.8411703,5.73767873 26.2907506,6.0045489 L28.1796816,8.75663381 L25.5276725,8.75663381 L23.9389689,6.42987111 Z M25.1148597,2.28923427 C24.8563293,2.06406256 24.4727091,1.95147839 23.9639879,1.95147839 L22.5879454,1.95147839 L22.5879454,4.51592115 L23.9639879,4.51592115 C24.4727091,4.51592115 24.8563293,4.40542188 25.1148597,4.18442002 C25.3733902,3.96341815 25.5026535,3.64859947 25.5026535,3.23995451 C25.5026535,2.83130956 25.3733902,2.51440598 25.1148597,2.28923427 Z M34.2384382,6.42987111 L32.8874147,6.42987111 L32.8874147,8.75663381 L30.4105383,8.75663381 L30.4105383,0 L34.4135709,0 C35.2058417,0 35.8938561,0.131348194 36.4776346,0.394048522 C37.0614131,0.65674885 37.5117497,1.0320294 37.8286581,1.51990144 C38.1455664,2.00777348 38.3040182,2.58111877 38.3040182,3.23995451 C38.3040182,3.87377118 38.1559909,4.42626755 37.8599318,4.8974602 C37.5638727,5.36865285 37.1406396,5.73767873 36.5902199,6.0045489 L38.4791509,8.75663381 L35.8271418,8.75663381 L34.2384382,6.42987111 Z M35.414329,2.28923427 C35.1557986,2.06406256 34.7721784,1.95147839 34.2634572,1.95147839 L32.8874147,1.95147839 L32.8874147,4.51592115 L34.2634572,4.51592115 C34.7721784,4.51592115 35.1557986,4.40542188 35.414329,4.18442002 C35.6728595,3.96341815 35.8021228,3.64859947 35.8021228,3.23995451 C35.8021228,2.83130956 35.6728595,2.51440598 35.414329,2.28923427 Z M45.2759666,5.61675512 L45.2759666,8.75663381 L42.7990902,8.75663381 L42.7990902,5.57922669 L39.4590599,0 L42.0735406,0 L44.1501137,3.47763457 L46.2266869,0 L48.6285064,0 L45.2759666,5.61675512 Z M63.681577,0 L60.8419257,8.75663381 L58.1899166,8.75663381 L56.5136467,3.42759666 L54.7623199,8.75663381 L52.1103108,8.75663381 L49.2706596,0 L51.8225929,0 L53.5864291,5.59173616 L55.4378317,0 L57.7145565,0 L59.4783927,5.64177407 L61.3172858,0 L63.681577,0 Z M71.1789234,7.05534496 L67.4761183,7.05534496 L66.788097,8.75663381 L64.2611827,8.75663381 L68.1266111,0 L70.5659591,0 L74.4438969,8.75663381 L71.8669447,8.75663381 L71.1789234,7.05534496 Z M70.4533738,5.22896133 L69.3275208,2.42683851 L68.2016679,5.22896133 L70.4533738,5.22896133 Z M76.186884,0 L78.6637604,0 L78.6637604,6.79264594 L82.8419257,6.79264594 L82.8419257,8.75663381 L76.186884,8.75663381 L76.186884,0 Z M84.8601213,0 L87.3369977,0 L87.3369977,6.79264594 L91.515163,6.79264594 L91.515163,8.75663381 L84.8601213,8.75663381 L84.8601213,0 Z M100.563685,6.84268385 L100.563685,8.75663381 L93.5333586,8.75663381 L93.5333586,0 L100.401061,0 L100.401061,1.91394996 L95.9852161,1.91394996 L95.9852161,3.39006823 L99.8756634,3.39006823 L99.8756634,5.24147081 L95.9852161,5.24147081 L95.9852161,6.84268385 L100.563685,6.84268385 Z M104.846096,1.96398787 L102.156558,1.96398787 L102.156558,0 L110,0 L110,1.96398787 L107.322972,1.96398787 L107.322972,8.75663381 L104.846096,8.75663381 L104.846096,1.96398787 Z"></path>
</svg>