<!--?xml version="1.0" encoding="UTF-8"?-->
<svg width="600px" height="400px" viewBox="0 0 600 400" version="1.1" xmlns="http://www.w3.org/2000/svg" xmlns:xlink="http://www.w3.org/1999/xlink" style="">
    <g stroke="none" stroke-width="1" fill="none">
        <path stroke="#D8DDEF" stroke-width="1" stroke-linejoin="square" width="599" height="399" d="M 4.5,0.5 L 595.5,0.5 A 4,4,0,0,1,599.5,4.5 L 599.5,395.5 A 4,4,0,0,1,595.5,399.5 L 4.5,399.5 A 4,4,0,0,1,0.5,395.5 L 0.5,4.5 A 4,4,0,0,1,4.5,0.5" class="ZfPIVACc_0"></path>
        <path d="M173.5,374.5 C178.470563,374.5 182.5,370.470563 182.5,365.5 C182.5,360.529437 178.470563,356.5 173.5,356.5 C168.529437,356.5 164.5,360.529437 164.5,365.5 C164.5,370.470563 168.529437,374.5 173.5,374.5 Z" stroke="#D8DDEF" fill-rule="nonzero" class="ZfPIVACc_1"></path>
        <path d="M200.5,374.5 C205.470563,374.5 209.5,370.470563 209.5,365.5 C209.5,360.529437 205.470563,356.5 200.5,356.5 C195.529437,356.5 191.5,360.529437 191.5,365.5 C191.5,370.470563 195.529437,374.5 200.5,374.5 Z" stroke="#D8DDEF" fill-rule="nonzero" class="ZfPIVACc_2"></path>
        <path d="M226.5,374.5 C231.470563,374.5 235.5,370.470563 235.5,365.5 C235.5,360.529437 231.470563,356.5 226.5,356.5 C221.529437,356.5 217.5,360.529437 217.5,365.5 C217.5,370.470563 221.529437,374.5 226.5,374.5 Z" stroke="#D8DDEF" fill-rule="nonzero" class="ZfPIVACc_3"></path>
        <path d="M253.5,374.5 C258.470563,374.5 262.5,370.470563 262.5,365.5 C262.5,360.529437 258.470563,356.5 253.5,356.5 C248.529437,356.5 244.5,360.529437 244.5,365.5 C244.5,370.470563 248.529437,374.5 253.5,374.5 Z" stroke="#D8DDEF" fill-rule="nonzero" class="ZfPIVACc_4"></path>
        <path stroke="#D8DDEF" width="130" height="69" d="M 154.5,10.5 L 278.5,10.5 A 3,3,0,0,1,281.5,13.5 L 281.5,76.5 A 3,3,0,0,1,278.5,79.5 L 154.5,79.5 A 3,3,0,0,1,151.5,76.5 L 151.5,13.5 A 3,3,0,0,1,154.5,10.5" class="ZfPIVACc_5"></path>
        <path stroke="#D8DDEF" width="130" height="69" d="M 154.5,90.5 L 278.5,90.5 A 3,3,0,0,1,281.5,93.5 L 281.5,156.5 A 3,3,0,0,1,278.5,159.5 L 154.5,159.5 A 3,3,0,0,1,151.5,156.5 L 151.5,93.5 A 3,3,0,0,1,154.5,90.5" class="ZfPIVACc_6"></path>
        <path stroke="#D8DDEF" width="130" height="69" d="M 154.5,171.5 L 278.5,171.5 A 3,3,0,0,1,281.5,174.5 L 281.5,237.5 A 3,3,0,0,1,278.5,240.5 L 154.5,240.5 A 3,3,0,0,1,151.5,237.5 L 151.5,174.5 A 3,3,0,0,1,154.5,171.5" class="ZfPIVACc_7"></path>
        <path stroke="#D8DDEF" width="130" height="69" d="M 154.5,251.5 L 278.5,251.5 A 3,3,0,0,1,281.5,254.5 L 281.5,317.5 A 3,3,0,0,1,278.5,320.5 L 154.5,320.5 A 3,3,0,0,1,151.5,317.5 L 151.5,254.5 A 3,3,0,0,1,154.5,251.5" class="ZfPIVACc_8"></path>
        <path d="M13,10.5 C11.6192881,10.5 10.5,11.6192881 10.5,13 L10.5,387 C10.5,388.380712 11.6192881,389.5 13,389.5 L138,389.5 C139.380712,389.5 140.5,388.380712 140.5,387 L140.5,13 C140.5,11.6192881 139.380712,10.5 138,10.5 L13,10.5 Z" stroke="#D8DDEF" class="ZfPIVACc_9"></path>
        <path d="M23,286.5 C21.6192881,286.5 20.5,287.619288 20.5,289 L20.5,325 C20.5,326.380712 21.6192881,327.5 23,327.5 L128,327.5 C129.380712,327.5 130.5,326.380712 130.5,325 L130.5,289 C130.5,287.619288 129.380712,286.5 128,286.5 L23,286.5 Z" stroke="#D8DDEF" class="ZfPIVACc_10"></path>
        <path d="M23,182.5 C21.6192881,182.5 20.5,183.619288 20.5,185 L20.5,221 C20.5,222.380712 21.6192881,223.5 23,223.5 L128,223.5 C129.380712,223.5 130.5,222.380712 130.5,221 L130.5,185 C130.5,183.619288 129.380712,182.5 128,182.5 L23,182.5 Z" stroke="#D8DDEF" class="ZfPIVACc_11"></path>
        <path d="M23,338.5 C21.6192881,338.5 20.5,339.619288 20.5,341 L20.5,377 C20.5,378.380712 21.6192881,379.5 23,379.5 L128,379.5 C129.380712,379.5 130.5,378.380712 130.5,377 L130.5,341 C130.5,339.619288 129.380712,338.5 128,338.5 L23,338.5 Z" stroke="#D8DDEF" class="ZfPIVACc_12"></path>
        <path d="M23,234.5 C21.6192881,234.5 20.5,235.619288 20.5,237 L20.5,273 C20.5,274.380712 21.6192881,275.5 23,275.5 L128,275.5 C129.380712,275.5 130.5,274.380712 130.5,273 L130.5,237 C130.5,235.619288 129.380712,234.5 128,234.5 L23,234.5 Z" stroke="#D8DDEF" class="ZfPIVACc_13"></path>
        <path d="M295,175.5 C293.619288,175.5 292.5,176.619288 292.5,178 L292.5,387 C292.5,388.380712 293.619288,389.5 295,389.5 L587,389.5 C588.380712,389.5 589.5,388.380712 589.5,387 L589.5,178 C589.5,176.619288 588.380712,175.5 587,175.5 L295,175.5 Z" stroke="#D8DDEF" class="ZfPIVACc_14"></path>
        <path d="M305,185.5 C303.619288,185.5 302.5,186.619288 302.5,188 L302.5,224 C302.5,225.380712 303.619288,226.5 305,226.5 L577,226.5 C578.380712,226.5 579.5,225.380712 579.5,224 L579.5,188 C579.5,186.619288 578.380712,185.5 577,185.5 L305,185.5 Z" stroke="#D8DDEF" class="ZfPIVACc_15"></path>
        <path d="M305,287.5 C303.619288,287.5 302.5,288.619288 302.5,290 L302.5,326 C302.5,327.380712 303.619288,328.5 305,328.5 L577,328.5 C578.380712,328.5 579.5,327.380712 579.5,326 L579.5,290 C579.5,288.619288 578.380712,287.5 577,287.5 L305,287.5 Z" stroke="#D8DDEF" class="ZfPIVACc_16"></path>
        <path stroke="#D8DDEF" width="133" height="41" d="M 305.5,235.5 L 432.5,235.5 A 3,3,0,0,1,435.5,238.5 L 435.5,273.5 A 3,3,0,0,1,432.5,276.5 L 305.5,276.5 A 3,3,0,0,1,302.5,273.5 L 302.5,238.5 A 3,3,0,0,1,305.5,235.5" class="ZfPIVACc_17"></path>
        <path stroke="#D8DDEF" width="133" height="41" d="M 449.5,235.5 L 576.5,235.5 A 3,3,0,0,1,579.5,238.5 L 579.5,273.5 A 3,3,0,0,1,576.5,276.5 L 449.5,276.5 A 3,3,0,0,1,446.5,273.5 L 446.5,238.5 A 3,3,0,0,1,449.5,235.5" class="ZfPIVACc_18"></path>
        <path d="M295,10.5 C293.619288,10.5 292.5,11.6192881 292.5,13 L292.5,162 C292.5,163.380712 293.619288,164.5 295,164.5 L587,164.5 C588.380712,164.5 589.5,163.380712 589.5,162 L589.5,13 C589.5,11.6192881 588.380712,10.5 587,10.5 L295,10.5 Z" stroke="#D8DDEF" class="ZfPIVACc_19"></path>
    </g>
    <style data-made-with="vivus-instant">.ZfPIVACc_0{stroke-dasharray:1990 1992;stroke-dashoffset:1991;animation:ZfPIVACc_draw 2014ms linear 0ms forwards;}.ZfPIVACc_1{stroke-dasharray:57 59;stroke-dashoffset:58;animation:ZfPIVACc_draw 58ms linear 2014ms forwards;}.ZfPIVACc_2{stroke-dasharray:57 59;stroke-dashoffset:58;animation:ZfPIVACc_draw 58ms linear 2073ms forwards;}.ZfPIVACc_3{stroke-dasharray:57 59;stroke-dashoffset:58;animation:ZfPIVACc_draw 58ms linear 2132ms forwards;}.ZfPIVACc_4{stroke-dasharray:57 59;stroke-dashoffset:58;animation:ZfPIVACc_draw 58ms linear 2190ms forwards;}.ZfPIVACc_5{stroke-dasharray:393 395;stroke-dashoffset:394;animation:ZfPIVACc_draw 398ms linear 2249ms forwards;}.ZfPIVACc_6{stroke-dasharray:393 395;stroke-dashoffset:394;animation:ZfPIVACc_draw 398ms linear 2648ms forwards;}.ZfPIVACc_7{stroke-dasharray:393 395;stroke-dashoffset:394;animation:ZfPIVACc_draw 398ms linear 3046ms forwards;}.ZfPIVACc_8{stroke-dasharray:393 395;stroke-dashoffset:394;animation:ZfPIVACc_draw 398ms linear 3445ms forwards;}.ZfPIVACc_9{stroke-dasharray:1014 1016;stroke-dashoffset:1015;animation:ZfPIVACc_draw 1027ms linear 3844ms forwards;}.ZfPIVACc_10{stroke-dasharray:298 300;stroke-dashoffset:299;animation:ZfPIVACc_draw 302ms linear 4871ms forwards;}.ZfPIVACc_11{stroke-dasharray:298 300;stroke-dashoffset:299;animation:ZfPIVACc_draw 302ms linear 5174ms forwards;}.ZfPIVACc_12{stroke-dasharray:298 300;stroke-dashoffset:299;animation:ZfPIVACc_draw 302ms linear 5476ms forwards;}.ZfPIVACc_13{stroke-dasharray:298 300;stroke-dashoffset:299;animation:ZfPIVACc_draw 302ms linear 5779ms forwards;}.ZfPIVACc_14{stroke-dasharray:1018 1020;stroke-dashoffset:1019;animation:ZfPIVACc_draw 1031ms linear 6081ms forwards;}.ZfPIVACc_15{stroke-dasharray:632 634;stroke-dashoffset:633;animation:ZfPIVACc_draw 640ms linear 7112ms forwards;}.ZfPIVACc_16{stroke-dasharray:632 634;stroke-dashoffset:633;animation:ZfPIVACc_draw 640ms linear 7753ms forwards;}.ZfPIVACc_17{stroke-dasharray:343 345;stroke-dashoffset:344;animation:ZfPIVACc_draw 348ms linear 8394ms forwards;}.ZfPIVACc_18{stroke-dasharray:343 345;stroke-dashoffset:344;animation:ZfPIVACc_draw 348ms linear 8742ms forwards;}.ZfPIVACc_19{stroke-dasharray:898 900;stroke-dashoffset:899;animation:ZfPIVACc_draw 909ms linear 9090ms forwards;}@keyframes ZfPIVACc_draw{100%{stroke-dashoffset:0;}}@keyframes ZfPIVACc_fade{0%{stroke-opacity:1;}97.1830985915493%{stroke-opacity:1;}100%{stroke-opacity:0;}}</style>
</svg>