<?xml version="1.0" encoding="UTF-8"?>
<svg width="20px" height="20px" viewBox="0 0 20 20" version="1.1" xmlns="http://www.w3.org/2000/svg" xmlns:xlink="http://www.w3.org/1999/xlink">
    <path d="M5.07214155,7.05649819 L14.9148092,7.05649819 L14.9148092,14.4647114 C14.9148092,14.8322428 14.4705806,15.313334 14.1030492,15.313334 L12.9475966,15.313334 L12.9475966,17.839016 C12.9475966,18.4821908 12.4728006,19 11.8898112,19 C11.3068012,19 10.8384654,18.4821908 10.8384654,17.839016 L10.8384654,15.313334 L9.14858862,15.313334 L9.14858862,17.839016 C9.14858862,18.4821908 8.68023219,19 8.09724278,19 C7.51423272,19 7.04589693,18.4821908 7.04589693,17.839016 L7.04589693,15.313334 L5.88398413,15.313334 C5.51645271,15.313334 5.07222411,14.8322428 5.07222411,14.4647114 L5.07214155,7.05649819 Z M3.45231601,6.90149393 C4.03349404,6.90149393 4.50463192,7.37263181 4.50463192,7.95380984 L4.50463192,12.5663735 C4.50463192,13.1475516 4.03349404,13.6186894 3.45231601,13.6186894 C2.87113798,13.6186894 2.4000001,13.1475516 2.4000001,12.5663735 L2.4000001,7.95380984 C2.4000001,7.37263181 2.87113798,6.90149393 3.45231601,6.90149393 Z M16.5358319,6.90149393 C17.1170099,6.90149393 17.5881478,7.37263181 17.5881478,7.95380984 L17.5881478,12.5663735 C17.5881478,13.1475516 17.1170099,13.6186894 16.5358319,13.6186894 C15.9546538,13.6186894 15.483516,13.1475516 15.483516,12.5663735 L15.483516,7.95380984 C15.483516,7.37263181 15.9546538,6.90149393 16.5358319,6.90149393 Z M6.83361746,1.13463142 L7.67200271,2.59235263 C6.14590212,3.34093448 5.11143957,4.80658135 5.11143957,6.48809899 L9.99397074,6.48809899 L14.8765019,6.48809899 C14.8765019,4.80662262 13.8420394,3.34095512 12.3159388,2.59235263 L13.1545304,1.13465206 C13.1545304,1.13465206 13.1942227,1.05723455 13.1189785,1.01376731 C13.0436436,0.97030213 12.9930763,1.0444565 12.9930763,1.0444565 L12.141688,2.51499497 C11.4933945,2.22647239 10.7645855,2.06350119 9.99391915,2.06350119 C9.22321152,2.06350119 8.49438187,2.22647239 7.84615031,2.51499497 L6.99476204,1.0444565 C6.99476204,1.0444565 6.94727831,0.970279426 6.87146657,1.01355678 C6.79551241,1.05683207 6.83348949,1.13465206 6.83348949,1.13465206 L6.83361746,1.13463142 Z M7.67200271,3.95814455 C7.92783199,3.95814455 5.21749963,3.08254733 8.13639632,4.42253815 C8.36889632,4.52927293 7.92783199,4.88049217 7.67200271,4.88049217 C7.41617343,4.88049217 7.20760911,4.67837156 7.20760911,4.42253815 C7.20760911,4.16670475 7.41617343,3.95814455 7.67200271,3.95814455 Z M12.3159388,3.95814455 C12.5717681,3.95814455 12.7803324,4.16670887 12.7803324,4.42253815 C12.7803303,4.67836743 12.5717681,4.88049217 12.3159388,4.88049217 C12.0601095,4.88049217 11.6211512,4.53375588 11.8515452,4.42253815 C15.5488142,2.63775891 12.0601095,3.95814455 12.3159388,3.95814455 Z" fill-rule="nonzero"></path>
</svg>