<?xml version="1.0" encoding="UTF-8"?>
<svg width="20px" height="20px" viewBox="0 0 20 20" version="1.1" xmlns="http://www.w3.org/2000/svg" xmlns:xlink="http://www.w3.org/1999/xlink">
    <path d="M16.6856222,14.877803 C16.4163125,15.4999634 16.0975377,16.0726587 15.7281987,16.5991866 C15.2247545,17.3169793 14.8125458,17.8138282 14.4948703,18.0897333 C14.0024183,18.5426132 13.4747911,18.7745493 12.9097904,18.78774 C12.504177,18.78774 12.0150227,18.6723216 11.4456251,18.438187 C10.8743588,18.2051517 10.3493698,18.0897333 9.869339,18.0897333 C9.36589477,18.0897333 8.82595632,18.2051517 8.24842445,18.438187 C7.67001319,18.6723216 7.20405247,18.7943353 6.84779423,18.8064268 C6.3059871,18.8295105 5.76593874,18.590979 5.22687967,18.0897333 C4.88282281,17.7896453 4.45247692,17.2752089 3.93694123,16.5464239 C3.38381211,15.7681738 2.92906346,14.8657116 2.57280522,13.8368386 C2.19126484,12.725524 2,11.6493844 2,10.6075407 C2,9.41411403 2.25787777,8.38480141 2.77440276,7.52224095 C3.18034589,6.82940056 3.72039425,6.28286677 4.39630661,5.8816503 C5.07221897,5.48043383 5.80254287,5.27597831 6.58903708,5.26289755 C7.01938297,5.26289755 7.58372417,5.39601348 8.28502858,5.65762861 C8.98435439,5.92012311 9.43338707,6.05323904 9.63025795,6.05323904 C9.77744394,6.05323904 10.2762714,5.89758904 11.1219039,5.58727832 C11.9215887,5.29950169 12.5965118,5.18034589 13.1494211,5.22728272 C14.6476623,5.34819727 15.7732669,5.93880991 16.5218379,7.00285798 C15.1818848,7.81474425 14.5190532,8.95189066 14.5322439,10.4106698 C14.5443353,11.5469368 14.956544,12.4924886 15.7666716,13.2432581 C16.1338121,13.5917119 16.5438224,13.8610215 17,14.0522864 C16.9010699,14.3391836 16.7966437,14.6139894 16.6856222,14.877803 Z M13.2494504,1.35625824 C13.2494504,2.24685989 12.9240803,3.07841126 12.2755386,3.84808735 C11.4928917,4.76308076 10.5462407,5.29180712 9.5196761,5.20837608 C9.50659534,5.10153158 9.4990107,4.98908105 9.4990107,4.87091455 C9.4990107,4.01593874 9.87120768,3.10094533 10.5321706,2.35281401 C10.8621574,1.97402169 11.2818408,1.65906126 11.7907812,1.40781181 C12.2986223,1.16031071 12.7789829,1.02343544 13.2307636,1 C13.2439543,1.11905687 13.2494504,1.23812473 13.2494504,1.35624725 L13.2494504,1.35625824 Z"></path>
</svg>